<svg width="177" height="94" viewBox="0 0 177 94" fill="none" xmlns="http://www.w3.org/2000/svg">
<path d="M0 53.5939H13.4676L20.9513 16.4336H7.48198L0 53.5939ZM8.22401 12.0014H21.748L23.9706 0.883262H10.4519L8.22401 12.0014ZM18.7058 64.0505H32.1752L40.4045 23.9026H50.5056L51.9949 16.4336H42.0877L42.4631 14.7533C43.0236 11.5862 44.1464 8.03029 49.196 8.03029C52.1923 8.03029 54.9966 8.2168 57.8008 9.52409L59.2989 1.68207C56.1737 0.581288 52.8854 0.0126786 49.5715 0C38.7213 0 31.241 6.34998 28.4333 16.4336H23.7573L22.2609 23.9026H26.9369L18.7058 64.0505Z" fill="black"/>
<path d="M61.3557 54.3418C77.2556 54.3418 88.2926 39.9615 88.2926 28.1976C88.2926 19.4213 80.2484 15.6859 72.3927 15.6859C54.9911 15.6859 45.4558 31.194 45.4558 41.8301C45.4558 50.6064 53.6869 54.3418 61.3557 54.3418ZM104.009 54.3418C119.909 54.3418 130.946 39.9615 130.946 28.1976C130.946 19.4213 122.715 15.6859 114.858 15.6859C97.4613 15.6859 87.9224 31.1852 87.9224 41.8301C87.9224 50.6064 96.3403 54.3418 104.009 54.3418ZM152.832 53.594H166.112L176.959 0.754883H163.491L160.31 16.4407L154.698 15.8812C141.604 15.8812 129.633 32.686 129.633 44.6382C129.633 49.4926 132.806 54.3488 138.238 54.3488C145.907 54.3488 151.332 50.6134 153.572 46.878H154.319L152.832 53.594ZM111.301 81.4185C100.847 90.0651 87.4199 94.2871 73.8891 93.1824C56.1174 92.0616 43.3972 78.4291 41.1534 64.0506H41.9008C46.0163 73.024 55.9306 81.4185 68.0903 82.724C80.4281 84.2178 95.2141 78.6174 103.257 70.9601L94.2782 64.0506H121.402L115.409 92.8094L111.481 81.605L111.301 81.4185Z" fill="black"/>
</svg>
