<svg width="206" height="74" viewBox="0 0 206 74" fill="none" xmlns="http://www.w3.org/2000/svg">
<path d="M188.116 32.0884C188.016 31.488 187.944 31.2312 187.936 30.9744C187.856 28.5094 187.757 26.0423 187.735 23.5753C187.729 22.7951 187.505 22.5383 186.696 22.5482C183.337 22.5877 179.977 22.5897 176.618 22.5482C175.773 22.5363 175.619 22.8563 175.619 23.603C175.637 39.4481 175.639 55.2932 175.613 71.1363C175.613 72.0035 175.899 72.2089 176.717 72.201C180.113 72.1654 183.508 72.1516 186.902 72.2069C187.884 72.2227 188.17 71.9422 188.164 70.9645C188.124 63.6602 188.114 56.3539 188.162 49.0496C188.174 47.1198 188.32 45.1762 188.581 43.2622C189.309 37.9232 192.698 34.2533 197.917 33.082C200.587 32.4835 203.292 32.4598 206 32.8548V22.0564C197.515 20.7112 191.803 24.3575 188.116 32.0865V32.0884Z" fill="black"/>
<path d="M150.577 22.2681C146.023 21.0671 141.401 21.0099 136.805 21.9461C128.31 23.6764 122.171 28.3576 119.223 36.531C116.64 43.6912 116.688 51.0172 119.159 58.1931C121.711 65.6041 127.04 70.2893 134.668 72.387C139.709 73.7736 144.828 73.8526 149.917 72.7722C157.881 71.0814 163.603 66.6767 166.405 58.9378C166.653 58.2504 166.819 57.5354 167.072 56.6545C162.992 56.6545 159.137 56.6367 155.284 56.69C154.969 56.694 154.527 57.1325 154.371 57.4702C153.171 60.0656 151.28 61.9184 148.589 62.983C146.414 63.8442 144.145 63.941 141.852 63.8462C134.624 63.544 130.541 57.9423 130.374 50.3476H131.732C143.202 50.3476 154.675 50.3476 166.146 50.3516C166.819 50.3516 167.396 50.4187 167.408 49.4272C167.454 45.6782 167.274 41.9589 166.255 38.3245C163.971 30.1748 159.057 24.502 150.577 22.2661V22.2681ZM153.988 41.9234C153.748 42.032 153.427 41.9708 153.141 41.9708C146.065 41.9708 138.99 41.9727 131.914 41.9708C131.528 41.9708 131.145 41.9293 130.703 41.9036C130.541 37.3409 134.131 32.634 138.748 31.4469C142.871 30.3881 146.919 30.5205 150.475 33.2068C153.153 35.2294 154.086 38.1823 154.517 41.3288C154.541 41.5086 154.218 41.8206 153.986 41.9253L153.988 41.9234Z" fill="black"/>
<path d="M76.7977 33.9293C75.6612 28.4639 72.7491 24.3338 67.2126 22.4356C64.2486 21.4203 61.1787 21.1714 58.0449 21.4618C52.4764 21.9773 48.0723 24.4009 44.9545 29.0229C44.7448 29.335 44.5271 29.6411 44.3133 29.9493L44.0417 29.8762C43.9119 27.739 43.7641 25.6038 43.6602 23.4666C43.6283 22.8168 43.4365 22.5403 42.7135 22.5482C39.356 22.5817 35.9965 22.5837 32.637 22.5482C31.8601 22.5403 31.6524 22.8326 31.6643 23.5397C31.6963 25.2325 31.6743 26.9272 31.6743 28.62C31.6743 42.6973 31.6863 56.7746 31.6524 70.8519C31.6504 71.9244 31.948 72.2345 33.0365 72.2108C36.2142 72.1397 39.3959 72.1852 42.5757 72.1852C44.0896 72.1852 44.0856 72.1851 44.0916 70.6879C44.1396 61.3768 44.0257 52.0617 44.2934 42.7585C44.4711 36.5978 48.4997 30.9151 56.6907 31.5294C60.0562 31.7823 62.7006 33.3032 63.8471 36.5307C64.5062 38.3874 64.9137 40.4297 64.9356 42.3951C65.0455 51.9195 64.9995 61.4459 64.9616 70.9724C64.9576 71.9659 65.2552 72.2227 66.2259 72.2069C69.5834 72.1535 72.9429 72.1535 76.3004 72.2069C77.2511 72.2227 77.5007 71.9442 77.4987 71.0139C77.4668 60.642 77.5107 50.2682 77.4488 39.8964C77.4368 37.9034 77.2051 35.8828 76.7997 33.9293H76.7977Z" fill="black"/>
<path d="M112.42 63.1643C109.811 63.3262 107.311 63.6166 104.814 63.6028C101.223 63.583 99.1357 61.3728 99.1317 57.8292C99.1197 49.8198 99.1477 41.8083 99.1037 33.7989C99.0977 32.7777 99.4552 32.5644 100.394 32.5742C104.075 32.6157 107.756 32.5762 111.437 32.6019C112.154 32.6078 112.452 32.4281 112.44 31.6558C112.398 28.9398 112.4 26.222 112.44 23.5041C112.452 22.7436 112.18 22.5441 111.447 22.552C108.124 22.5836 104.8 22.5658 101.477 22.5658C100.736 22.5658 99.9965 22.5658 99.1297 22.5658V21.203C99.1297 16.5099 99.0977 11.8168 99.1537 7.12367C99.1656 6.07286 98.914 5.71535 97.7995 5.74103C94.5858 5.81213 91.3681 5.76473 88.1504 5.7667C87.1291 5.7667 86.6178 6.25985 86.6165 7.24613C86.6165 24.2547 86.6125 41.2632 86.6265 58.2717C86.6265 59.5003 86.6724 60.7427 86.8602 61.9555C87.5932 66.7039 90.0359 70.2375 94.6797 71.9757C100.284 74.0714 106.002 73.7771 111.737 72.4873C112.432 72.3312 112.504 71.8888 112.502 71.314C112.49 68.7739 112.5 66.2318 112.492 63.6917C112.492 63.425 112.422 63.1603 112.424 63.1663L112.42 63.1643Z" fill="black"/>
<path d="M21.0966 47.3392C21.0966 39.4739 21.0966 31.6067 21.0966 23.7414C21.0966 23.1587 21.2583 22.5444 20.2497 22.5484C13.8563 22.58 7.46088 22.5721 1.06747 22.5523C0.400363 22.5523 0.20862 22.7933 0.214612 23.4214C0.23858 26.1729 0.242575 28.9243 0.212615 31.6758C0.204626 32.3612 0.420336 32.612 1.12739 32.5982C3.1267 32.5646 5.12801 32.5844 7.12932 32.5883C8.10135 32.5883 8.58803 33.0677 8.58936 34.0263C8.58936 46.3713 8.59735 58.7184 8.57138 71.0634C8.57138 71.9345 8.80906 72.215 9.70786 72.2031C13.0653 72.1557 16.4248 72.132 19.7803 72.213C20.9208 72.2406 21.1265 71.8555 21.1225 70.8303C21.0826 63.0006 21.1005 55.1689 21.1005 47.3372L21.0966 47.3392Z" fill="black"/>
<path d="M21.7216 6.43807C21.7037 3.74191 19.994 1.60079 17.2736 1.16822C15.7756 0.931193 14.2077 0.877863 12.6978 1.01613C9.86957 1.27488 8.07198 3.01109 7.68051 5.79613C7.48477 7.18075 7.42685 8.61673 7.56267 10.0053C7.87026 13.1301 9.46811 14.7814 12.5759 15.2673C13.7264 15.447 14.9268 15.4588 16.0932 15.3877C19.1391 15.2021 21.1025 13.6022 21.6218 10.8685C21.7836 10.0191 21.6477 9.11646 21.6477 8.23749C21.6737 8.23749 21.6977 8.23749 21.7236 8.23749C21.7236 7.639 21.7276 7.03854 21.7236 6.44005L21.7216 6.43807Z" fill="black"/>
</svg>
