<svg width="255" height="43" viewBox="0 0 255 43" fill="none" xmlns="http://www.w3.org/2000/svg">
<path d="M80.0455 4.17476H73.2513V33.4151H80.0455V4.17476Z" fill="white"/>
<path d="M101.233 10.5817C99.3376 10.6414 97.1819 11.57 95.496 13.3507H93.3235V10.7181H86.7977V33.4236H93.4577V21.7513C93.4577 18.3008 95.1101 16.0771 98.5995 16.0771C101.502 16.0771 102.71 17.8492 102.71 20.9845V33.4236H109.37V20.5756C109.37 15.9919 109.009 10.3602 101.233 10.5903V10.5817Z" fill="white"/>
<path d="M115.669 5.35903V10.7606H111.869V15.9834H115.627V33.4151H122.329V15.9834H128.226V10.7606H122.237V7.35268C122.237 6.30474 122.144 5.75946 123.579 5.75946H129.165V0H119.821C115.619 0 115.66 2.08738 115.66 5.35903H115.669Z" fill="white"/>
<path d="M134.626 1.22687C131.765 1.22687 130.65 3.35685 130.65 4.77115C130.65 6.18546 131.816 8.22171 134.626 8.22171C137.435 8.22171 138.652 6.09174 138.652 4.67743C138.652 3.17793 137.444 1.22687 134.626 1.22687Z" fill="white"/>
<path d="M137.981 10.7607H131.321V33.4151H137.981V10.7607Z" fill="white"/>
<path d="M179.148 10.7181L172.396 26.0624H172.035L164.704 10.7181H157.684H156.434H151.921V4.63483H145.395V10.7181H141.73V15.9834H145.261V27.8772C145.261 32.4609 148.214 33.4151 151.653 33.4151L155.721 33.3725V27.9198C152.324 28.0561 151.921 28.0135 151.921 25.466V15.9748H160.225L168.16 32.4012C168.689 33.4918 168.68 34.7698 168.143 35.8603C167.699 36.8145 166.667 37.4961 165.594 37.4961H159.781V42.9915H167.917C170.198 42.9915 172.388 41.5857 173.327 39.4472L185.934 10.7095H179.14L179.148 10.7181Z" fill="white"/>
<path d="M26.187 0L14.1168 14.9098L0 5.4783L15.5679 43L26.187 36.7038V0Z" fill="#AFD500"/>
<path d="M48.1549 14.9098L36.0847 0V36.7038L46.7038 43L62.2717 5.4783L48.1549 14.9098Z" fill="#AFD500"/>
<path d="M244.893 35.7496H178.008L188.987 10.7095H255V25.4831C251.049 29.4959 248.843 31.7367 244.893 35.7496Z" fill="#AFD500"/>
<path d="M209.714 17.6873C213.178 17.6873 215.367 19.5106 215.367 23.2508C215.367 27.2211 212.926 28.8143 209.714 28.8143C206.501 28.8143 204.01 27.2126 204.01 23.2508C204.01 19.2891 206.233 17.6873 209.714 17.6873ZM213.044 23.2594C213.044 20.5756 211.735 19.7236 209.714 19.7236C207.692 19.7236 206.367 20.5841 206.367 23.2594C206.367 25.9346 207.717 26.7951 209.714 26.7951C211.71 26.7951 213.044 25.9176 213.044 23.2594Z" fill="black"/>
<path d="M217.632 17.8066H219.981V20.6437C220.492 18.6842 221.641 17.7385 223.26 17.7385H224.946V19.9025L223.059 19.9281C221.348 19.9281 219.997 21.4872 219.997 23.3105V28.7206H217.624V17.8151L217.632 17.8066Z" fill="black"/>
<path d="M226.951 13.7937H229.325V23.1912L234.961 17.8066H237.604L232.99 22.3563L237.914 28.7121H235.003L231.229 23.9154L229.325 25.7216V28.7206H226.951V13.8023V13.7937Z" fill="black"/>
<path d="M246.855 20.959C246.813 19.8514 245.547 19.451 243.995 19.451C242.62 19.4254 241.378 19.9281 241.445 20.9845C241.554 23.3275 249.212 21.189 249.187 25.449C249.187 28.0816 246.839 28.8995 244.398 28.8995C240.363 28.8995 239.231 26.8292 239.164 25.0656H241.227C241.319 26.4373 243.047 26.94 244.196 26.9826C245.371 27.0252 247.015 26.6247 247.015 25.5597C247.015 23.4894 239.298 25.3127 239.298 20.9419C239.298 18.5734 241.269 17.5595 244.071 17.5595C247.644 17.5595 248.818 19.272 248.885 20.959H246.864H246.855Z" fill="black"/>
<path d="M189.86 28.7121L192.745 19.9196L195.563 28.7121H199.464L203.079 17.8066H200.73L197.761 26.9996H197.467L194.54 17.8066H191.101L188.149 26.9996H187.863L185.322 19.0931L183.896 22.3563L185.934 28.7121H189.86Z" fill="black"/>
</svg>
