<svg width="244" height="244" viewBox="0 0 244 244" fill="none" xmlns="http://www.w3.org/2000/svg">
<path d="M56.7774 215.757C103.659 215.757 135.854 240.042 158.444 240.042C181.034 240.042 228.479 227.056 228.479 123.132C228.479 19.2082 164.653 3.95142 139.805 3.95142C23.4511 3.95142 -26.2504 215.757 56.7774 215.757Z" fill="#1F1F1F"/>
<path d="M30.5 54.4459C24.8948 54.4459 20.3334 49.8844 20.3334 44.2792C20.3334 38.674 24.8948 34.1125 30.5 34.1125C36.1053 34.1125 40.6667 38.674 40.6667 44.2792C40.6667 49.8844 36.1053 54.4459 30.5 54.4459ZM30.5 40.8903C28.6294 40.8903 27.1112 42.4085 27.1112 44.2792C27.1112 46.1499 28.6294 47.6681 30.5 47.6681C32.3707 47.6681 33.8889 46.1499 33.8889 44.2792C33.8889 42.4085 32.3707 40.8903 30.5 40.8903Z" fill="#AFD500"/>
<path d="M198.25 154.194V171.139C198.25 174.867 195.2 177.917 191.472 177.917H52.5278C48.8 177.917 45.75 174.867 45.75 171.139V154.194H198.25Z" fill="white"/>
<path d="M198.25 79.6389V154.194H45.75V79.6389C45.75 75.9111 48.8 72.8611 52.5278 72.8611H191.472C195.2 72.8611 198.25 75.9111 198.25 79.6389Z" fill="#AFD500"/>
<path d="M143.892 198.25H99.9722C108.444 189.778 110.003 177.917 110.003 177.917H133.861C133.861 177.917 135.488 189.846 143.892 198.25Z" fill="white"/>
<path d="M61 171.139V154.194H45.75V171.139C45.75 174.867 48.8 177.917 52.5278 177.917H67.7778C64.05 177.917 61 174.867 61 171.139Z" fill="#D8D8D8"/>
<path d="M67.7778 72.8611H52.5278C48.8 72.8611 45.75 75.9111 45.75 79.6389V154.194H61V79.6389C61 75.9111 64.05 72.8611 67.7778 72.8611Z" fill="#748D00"/>
<path d="M110.003 177.917C110.003 177.917 108.444 189.778 99.9722 198.25H115.222C123.694 189.778 125.253 177.917 125.253 177.917H110.003Z" fill="#D8D8D8"/>
<path d="M191.472 183H52.5277C45.9872 183 40.6666 177.679 40.6666 171.139V79.6389C40.6666 73.0984 45.9872 67.7778 52.5277 67.7778H191.472C198.013 67.7778 203.333 73.0984 203.333 79.6389V171.139C203.333 177.679 198.013 183 191.472 183ZM52.5277 77.9445C51.5924 77.9445 50.8333 78.7036 50.8333 79.6389V171.139C50.8333 172.074 51.5924 172.833 52.5277 172.833H191.472C192.408 172.833 193.167 172.074 193.167 171.139V79.6389C193.167 78.7036 192.408 77.9445 191.472 77.9445H52.5277Z" fill="black"/>
<path d="M198.25 159.278H45.75C42.944 159.278 40.6666 157 40.6666 154.194C40.6666 151.388 42.944 149.111 45.75 149.111H198.25C201.056 149.111 203.333 151.388 203.333 154.194C203.333 157 201.056 159.278 198.25 159.278Z" fill="black"/>
<path d="M144.028 203.333H99.9723C97.9186 203.333 96.0615 202.093 95.2753 200.195C94.4891 198.298 94.9228 196.108 96.3801 194.658C103.436 187.602 104.954 177.361 104.968 177.259C105.334 174.474 107.895 172.522 110.668 172.881C113.453 173.247 115.412 175.802 115.046 178.581C114.992 178.981 114.05 185.806 110.003 193.167H133.882C129.876 185.84 128.88 179.015 128.825 178.615C128.439 175.836 130.377 173.267 133.163 172.881C135.962 172.501 138.504 174.433 138.897 177.205C138.944 177.51 140.47 187.162 146.922 194.068C148.244 194.99 149.111 196.515 149.111 198.25C149.111 201.056 146.834 203.333 144.028 203.333Z" fill="black"/>
<path d="M144.028 132.167C142.855 132.167 141.683 131.767 140.72 130.94C138.592 129.11 138.341 125.904 140.171 123.769L147.498 115.222L140.164 106.669C138.334 104.541 138.585 101.328 140.713 99.4978C142.848 97.6678 146.061 97.9254 147.884 100.047L158.051 111.908C159.684 113.813 159.684 116.619 158.051 118.53L147.884 130.391C146.881 131.564 145.458 132.167 144.028 132.167Z" fill="black"/>
<path d="M99.9722 132.167C98.5421 132.167 97.1188 131.563 96.1089 130.391L85.9422 118.53C84.3088 116.625 84.3088 113.819 85.9422 111.908L96.1089 100.047C97.9389 97.9118 101.138 97.661 103.28 99.4978C105.408 101.328 105.659 104.534 103.829 106.669L96.502 115.222L103.836 123.776C105.666 125.904 105.415 129.117 103.287 130.947C102.324 131.76 101.145 132.167 99.9722 132.167Z" fill="black"/>
<path d="M116.917 142.333C116.537 142.333 116.157 142.293 115.771 142.204C113.033 141.574 111.332 138.843 111.955 136.111L122.122 92.0557C122.752 89.3174 125.49 87.6433 128.215 88.2398C130.953 88.8701 132.655 91.6016 132.031 94.333L121.864 138.389C121.329 140.747 119.235 142.333 116.917 142.333Z" fill="black"/>
</svg>
