<svg width="244" height="244" viewBox="0 0 244 244" fill="none" xmlns="http://www.w3.org/2000/svg">
<path d="M28.243 56.7775C28.243 103.659 3.95825 135.854 3.95825 158.444C3.95825 181.035 16.9445 228.479 120.868 228.479C224.792 228.479 240.042 164.653 240.042 139.805C240.049 23.4512 28.243 -26.2502 28.243 56.7775Z" fill="#1F1F1F"/>
<path d="M184.538 28.3103L194.124 18.7251L198.916 23.5177L189.331 33.1029L184.538 28.3103Z" fill="#AFD500"/>
<path d="M158.161 21.0938L162.953 16.3011L172.538 25.8864L167.746 30.679L158.161 21.0938Z" fill="#AFD500"/>
<path d="M185.728 48.6792L190.521 43.8866L200.106 53.4718L195.313 58.2644L185.728 48.6792Z" fill="#AFD500"/>
<path d="M177.917 101.667C177.917 117.12 171.681 131.082 161.514 141.249C154.872 147.891 150.806 156.567 150.806 165.988V174.528H93.1944V165.988C93.1944 156.567 89.06 147.823 82.4177 141.181C70.2855 129.049 63.7111 111.291 66.8966 92.1778C70.8277 67.9134 91.2289 48.7323 115.697 46.0889C149.45 42.4289 177.917 68.6589 177.917 101.667Z" fill="#AFD500"/>
<path d="M150.806 174.528V184.966C150.806 192.286 144.909 198.25 137.657 198.25H106.479C99.1589 198.25 93.1945 192.286 93.1945 184.966V174.528H150.806Z" fill="white"/>
<path d="M97.6677 141.181C85.5355 129.049 78.9611 111.291 82.1466 92.1777C86.0032 68.3945 105.686 49.5387 129.51 46.3057C125.043 45.7092 120.434 45.5737 115.697 46.0888C91.2289 48.7321 70.8277 67.9132 66.8966 92.1777C63.7111 111.291 70.2855 129.049 82.4177 141.181C89.06 147.823 93.1944 156.567 93.1944 165.988V174.528H108.444V165.988C108.444 156.567 104.31 147.823 97.6677 141.181Z" fill="#748D00"/>
<path d="M108.444 184.966V174.528H93.1945V184.966C93.1945 192.286 99.1589 198.25 106.479 198.25H121.729C114.409 198.25 108.444 192.286 108.444 184.966Z" fill="#D8D8D8"/>
<path d="M150.806 179.611H93.1944C90.3884 179.611 88.1111 177.334 88.1111 174.528C88.1111 171.722 90.3884 169.444 93.1944 169.444H150.806C153.612 169.444 155.889 171.722 155.889 174.528C155.889 177.334 153.612 179.611 150.806 179.611Z" fill="black"/>
<path d="M137.657 203.333H106.479C96.3529 203.333 88.1111 195.092 88.1111 184.966V165.961C88.1111 158.315 84.8104 150.799 78.8256 144.787C64.7752 130.689 58.5871 111.217 61.8472 91.3576C66.1579 65.0937 88.572 43.9335 115.154 41.0394C132.763 39.1077 149.66 44.5164 162.734 56.2352C175.612 67.7913 183 84.3494 183 101.667C183 117.974 176.649 133.305 165.113 144.848C159.163 150.806 155.889 158.295 155.889 165.954V184.966C155.889 195.092 147.708 203.333 137.657 203.333ZM122.068 50.8333C120.143 50.8333 118.204 50.9417 116.252 51.1518C94.1298 53.5647 75.4638 71.1666 71.8851 93.0114C69.1605 109.603 74.3116 125.863 86.0304 137.616C93.9332 145.539 98.2846 155.611 98.2846 165.967V184.972C98.2846 189.493 101.965 193.173 106.486 193.173H137.663C142.11 193.173 145.729 189.493 145.729 184.972V165.961C145.729 155.591 150.067 145.539 157.936 137.663C167.54 128.046 172.833 115.256 172.833 101.667C172.833 87.2367 166.672 73.4304 155.936 63.8059C146.495 55.3337 134.641 50.8333 122.068 50.8333Z" fill="black"/>
<path d="M116.917 128.778C116.537 128.778 116.157 128.737 115.771 128.649C113.033 128.019 111.332 125.287 111.955 122.556L122.122 78.5002C122.752 75.7687 125.477 74.0743 128.215 74.6843C130.953 75.3146 132.655 78.0461 132.031 80.7775L121.864 124.833C121.329 127.192 119.235 128.778 116.917 128.778Z" fill="black"/>
<path d="M144.028 122C142.638 122 141.256 121.438 140.246 120.319C138.368 118.232 138.538 115.019 140.625 113.135L153.374 101.667L140.625 90.1988C138.538 88.3213 138.368 85.1087 140.246 83.0143C142.137 80.9268 145.336 80.7573 147.43 82.6348L164.375 97.8848C165.446 98.854 166.056 100.23 166.056 101.667C166.056 103.104 165.446 104.48 164.375 105.449L147.43 120.699C146.454 121.573 145.241 122 144.028 122Z" fill="black"/>
<path d="M99.9722 122C98.759 122 97.5458 121.573 96.5698 120.699L79.6253 105.449C78.5545 104.48 77.9445 103.104 77.9445 101.667C77.9445 100.23 78.5545 98.854 79.6253 97.8848L96.5698 82.6348C98.6641 80.7641 101.863 80.9268 103.754 83.0143C105.632 85.1019 105.462 88.3145 103.375 90.1988L90.6257 101.667L103.375 113.135C105.462 115.012 105.632 118.225 103.754 120.319C102.744 121.438 101.362 122 99.9722 122Z" fill="black"/>
</svg>
