<svg width="252" height="252" viewBox="0 0 252 252" fill="none" xmlns="http://www.w3.org/2000/svg">
<path d="M193.361 29.1689C144.942 29.1689 111.692 4.08789 88.361 4.08789C65.03 4.08789 16.03 17.4999 16.03 124.831C16.03 232.162 81.949 247.912 107.611 247.912C227.78 247.919 279.111 29.1689 193.361 29.1689Z" fill="#1F1F1F"/>
<path d="M138.556 19.9917L143.506 15.042L153.406 24.9414L148.456 29.8912L138.556 19.9917Z" fill="#AFD500"/>
<path d="M167.014 48.4468L171.963 43.497L181.863 53.3965L176.913 58.3463L167.014 48.4468Z" fill="#AFD500"/>
<path d="M165.776 24.937L175.675 15.0375L180.625 19.9873L170.726 29.8868L165.776 24.937Z" fill="#AFD500"/>
<path d="M171.5 159.25C180.198 159.25 187.25 152.198 187.25 143.5C187.25 134.802 180.198 127.75 171.5 127.75C162.802 127.75 155.75 134.802 155.75 143.5C155.75 152.198 162.802 159.25 171.5 159.25Z" fill="white"/>
<path d="M190.75 180.25H152.25C144.515 180.25 138.25 186.515 138.25 194.25V204.75H204.75V194.25C204.75 186.515 198.485 180.25 190.75 180.25Z" fill="white"/>
<path d="M47.25 61.25V106.75C47.25 114.45 53.55 120.75 61.25 120.75H98L120.75 141.75V120.75H134.75C142.45 120.75 148.75 114.45 148.75 106.75V61.25C148.75 53.55 142.45 47.25 134.75 47.25H61.25C53.55 47.25 47.25 53.55 47.25 61.25Z" fill="#AFD500"/>
<path d="M70 169.75C74.8325 169.75 78.75 165.832 78.75 161C78.75 156.168 74.8325 152.25 70 152.25C65.1675 152.25 61.25 156.168 61.25 161C61.25 165.832 65.1675 169.75 70 169.75Z" fill="#EFEFEF"/>
<path d="M78.75 187.25H61.25C53.515 187.25 47.25 193.515 47.25 201.25V204.75H92.75V201.25C92.75 193.515 86.485 187.25 78.75 187.25Z" fill="white"/>
<path d="M171.5 143.5C171.5 137.683 174.685 132.664 179.375 129.934C177.051 128.583 174.384 127.75 171.5 127.75C162.799 127.75 155.75 134.799 155.75 143.5C155.75 152.201 162.799 159.25 171.5 159.25C174.384 159.25 177.051 158.417 179.375 157.066C174.685 154.336 171.5 149.317 171.5 143.5Z" fill="#D8D8D8"/>
<path d="M168 180.25H152.25C144.515 180.25 138.25 186.515 138.25 194.25V204.75H154V194.25C154 186.515 160.265 180.25 168 180.25Z" fill="#D8D8D8"/>
<path d="M63 106.75V61.25C63 53.55 69.3 47.25 77 47.25H61.25C53.55 47.25 47.25 53.55 47.25 61.25V106.75C47.25 114.45 53.55 120.75 61.25 120.75H77C69.3 120.75 63 114.45 63 106.75Z" fill="#748D00"/>
<path d="M113.75 120.75H98L120.75 141.75V127.211L113.75 120.75Z" fill="#748D00"/>
<path d="M77 187.25H61.25C53.515 187.25 47.25 193.515 47.25 201.25V204.75H63V201.25C63 193.515 69.265 187.25 77 187.25Z" fill="#D8D8D8"/>
<path d="M171.5 164.5C159.922 164.5 150.5 155.078 150.5 143.5C150.5 131.922 159.922 122.5 171.5 122.5C183.078 122.5 192.5 131.922 192.5 143.5C192.5 155.078 183.078 164.5 171.5 164.5ZM171.5 133C165.711 133 161 137.711 161 143.5C161 149.289 165.711 154 171.5 154C177.289 154 182 149.289 182 143.5C182 137.711 177.289 133 171.5 133Z" fill="black"/>
<path d="M204.75 210C201.852 210 199.5 207.648 199.5 204.75V194.25C199.5 189.427 195.573 185.5 190.75 185.5H152.25C147.427 185.5 143.5 189.427 143.5 194.25V204.75C143.5 207.648 141.148 210 138.25 210C135.352 210 133 207.648 133 204.75V194.25C133 183.631 141.631 175 152.25 175H190.75C201.369 175 210 183.631 210 194.25V204.75C210 207.648 207.648 210 204.75 210Z" fill="black"/>
<path d="M120.75 147C119.455 147 118.181 146.524 117.187 145.607L95.949 126H61.25C50.631 126 42 117.369 42 106.75V61.25C42 50.631 50.631 42 61.25 42H134.75C145.369 42 154 50.631 154 61.25V106.75C154 117.369 145.369 126 134.75 126H126V141.75C126 143.836 124.761 145.719 122.857 146.566C122.178 146.853 121.464 147 120.75 147ZM61.25 52.5C56.427 52.5 52.5 56.427 52.5 61.25V106.75C52.5 111.573 56.427 115.5 61.25 115.5H98C99.316 115.5 100.59 115.997 101.563 116.893L115.5 129.759V120.75C115.5 117.852 117.852 115.5 120.75 115.5H134.75C139.573 115.5 143.5 111.573 143.5 106.75V61.25C143.5 56.427 139.573 52.5 134.75 52.5H61.25Z" fill="black"/>
<path d="M70 175C62.279 175 56 168.721 56 161C56 153.279 62.279 147 70 147C77.721 147 84 153.279 84 161C84 168.721 77.721 175 70 175ZM70 157.5C68.075 157.5 66.5 159.075 66.5 161C66.5 162.925 68.075 164.5 70 164.5C71.925 164.5 73.5 162.925 73.5 161C73.5 159.075 71.925 157.5 70 157.5Z" fill="black"/>
<path d="M92.75 210C89.852 210 87.5 207.648 87.5 204.75V201.25C87.5 196.427 83.573 192.5 78.75 192.5H61.25C56.427 192.5 52.5 196.427 52.5 201.25V204.75C52.5 207.648 50.148 210 47.25 210C44.352 210 42 207.648 42 204.75V201.25C42 190.631 50.631 182 61.25 182H78.75C89.369 182 98 190.631 98 201.25V204.75C98 207.648 95.648 210 92.75 210Z" fill="black"/>
<path d="M120.75 101.5C119.539 101.5 118.321 101.087 117.334 100.233C115.136 98.3431 114.877 95.0321 116.767 92.8271L124.334 84.0001L116.767 75.1661C114.877 72.9681 115.136 69.6501 117.334 67.7601C119.539 65.8771 122.85 66.1291 124.74 68.3271L135.24 80.5771C136.927 82.5441 136.927 85.4421 135.24 87.4161L124.74 99.6661C123.697 100.877 122.227 101.5 120.75 101.5Z" fill="black"/>
<path d="M75.25 101.5C73.773 101.5 72.303 100.877 71.267 99.666L60.767 87.416C59.08 85.449 59.08 82.551 60.767 80.577L71.267 68.327C73.164 66.129 76.468 65.87 78.673 67.76C80.878 69.65 81.13 72.961 79.24 75.166L71.666 84L79.233 92.834C81.123 95.032 80.864 98.35 78.666 100.24C77.679 101.08 76.461 101.5 75.25 101.5Z" fill="black"/>
<path d="M96.257 105C96.068 105 95.865 104.993 95.669 104.972C92.792 104.65 90.713 102.053 91.035 99.1689L94.535 67.6689C94.85 64.7919 97.405 62.7199 100.331 63.0279C103.208 63.3499 105.287 65.9469 104.965 68.8309L101.465 100.331C101.171 103.012 98.896 105 96.257 105Z" fill="black"/>
</svg>
