<svg width="224" height="52" viewBox="0 0 224 52" fill="none" xmlns="http://www.w3.org/2000/svg">
<g clip-path="url(#clip0_33_206)">
<path d="M8.37364 5.04834H0V40.4088H8.37364V5.04834Z" fill="black"/>
<path d="M34.487 12.7964C32.1506 12.8685 29.4938 13.9916 27.4159 16.1449H24.7384V12.9612H16.6956V40.4191H24.9038V26.3038C24.9038 22.131 26.9403 19.4419 31.2409 19.4419C34.8178 19.4419 36.3064 21.585 36.3064 25.3765V40.4191H44.5146V24.882C44.5146 19.3389 44.0701 12.5285 34.487 12.8067V12.7964Z" fill="black"/>
<path d="M52.2784 6.48068V13.0129H47.5953V19.3287H52.2267V40.409H60.4866V19.3287H67.7541V13.0129H60.3729V8.89162C60.3729 7.62433 60.2592 6.96493 62.0269 6.96493H68.9119V0H57.3956C52.2163 0 52.268 2.52427 52.268 6.48068H52.2784Z" fill="black"/>
<path d="M75.6419 1.48389C72.1167 1.48389 70.7418 4.05967 70.7418 5.77C70.7418 7.48032 72.1787 9.94277 75.6419 9.94277C79.1051 9.94277 80.604 7.36699 80.604 5.65666C80.604 3.84331 79.1154 1.48389 75.6419 1.48389Z" fill="black"/>
<path d="M79.7666 13.0127H71.5584V40.4088H79.7666V13.0127Z" fill="black"/>
<path d="M130.505 12.9614L122.183 31.5174H121.738L112.703 12.9614H104.05H102.51H96.9482V5.60498H88.9053V12.9614H84.3877V19.3288H88.7399V33.712C88.7399 39.2551 92.3788 40.409 96.6173 40.409L101.631 40.3575V33.7635C97.4444 33.9283 96.9482 33.8768 96.9482 30.7962V19.3185H107.183L116.962 39.1829C117.613 40.5017 117.603 42.0472 116.942 43.366C116.394 44.52 115.122 45.3442 113.799 45.3442H106.635V51.9898H116.662C119.474 51.9898 122.172 50.2897 123.33 47.7036L138.868 12.9511H130.494L130.505 12.9614Z" fill="black"/>
<path d="M168.186 23.8413C165.726 23.8413 164.061 24.8819 164.061 28.1171C164.061 31.3523 165.726 32.3929 168.186 32.3929C170.646 32.3929 172.29 31.3317 172.29 28.1171C172.29 24.9025 170.677 23.8413 168.186 23.8413Z" fill="black"/>
<path d="M142.641 12.9614L138.124 23.0791L141.256 32.6507H141.608L145.246 21.5336H149.485L153.093 32.6507H153.444L157.104 21.5336H159.999L155.543 34.7217H150.726L147.252 24.0888L143.696 34.7217H138.858L136.335 27.0252L129.088 43.2321H211.522C216.391 38.3793 219.11 35.6696 223.979 30.8168V12.9614H142.621H142.641ZM168.186 34.8556C164.247 34.8556 161.156 32.9186 161.156 28.1277C161.156 23.3367 163.896 21.3997 168.186 21.3997C172.476 21.3997 175.154 23.6046 175.154 28.1277C175.154 32.9289 172.145 34.8556 168.186 34.8556ZM186.97 24.0682L184.644 24.0991C182.535 24.0991 180.871 25.9846 180.871 28.1895V34.732H177.945V21.544H180.84V24.9749C181.47 22.6052 182.886 21.4615 184.882 21.4615H186.96V24.0785L186.97 24.0682ZM199.355 34.7217L194.703 28.921L192.356 31.1053V34.732H189.43V16.6912H192.356V28.0555L199.303 21.544H202.559L196.874 27.0458L202.942 34.732H199.365L199.355 34.7217ZM210.923 34.938C205.95 34.938 204.555 32.4344 204.472 30.3016H207.015C207.129 31.9604 209.258 32.5683 210.675 32.6198C212.122 32.6714 214.148 32.1871 214.148 30.8992C214.148 28.3955 204.637 30.6004 204.637 25.3149C204.637 22.4506 207.067 21.2246 210.519 21.2246C214.923 21.2246 216.371 23.2955 216.453 25.3355H213.962C213.91 23.9961 212.349 23.5119 210.437 23.5119C208.741 23.4809 207.211 24.0888 207.294 25.3664C207.428 28.1998 216.867 25.6137 216.836 30.7653C216.836 33.9489 213.941 34.938 210.933 34.938H210.923Z" fill="black"/>
</g>
<defs>
<clipPath id="clip0_33_206">
<rect width="224" height="52" fill="white"/>
</clipPath>
</defs>
</svg>
