<svg width="213" height="77" viewBox="0 0 213 77" fill="none" xmlns="http://www.w3.org/2000/svg">
<g clip-path="url(#clip0_33_132)">
<path d="M83.6846 0.920898C84.0751 1.03179 84.4656 1.14444 84.8578 1.25534C89.0165 2.42587 90.889 6.84748 88.8319 10.7305C86.4322 15.2594 83.9899 19.7656 81.5653 24.2822C72.9072 40.4109 64.2438 56.5378 55.5928 72.6717C54.3255 75.0357 52.3838 76.4368 49.6859 76.523C46.8371 76.6146 44.7001 75.2856 43.3565 72.7897C41.0934 68.5863 38.8553 64.3671 36.6064 60.1568C36.4573 59.8769 36.294 59.6058 36.0527 59.1816C35.813 59.5776 35.6267 59.854 35.4705 60.1462C33.7541 63.3462 32.0307 66.5427 30.3338 69.7551C29.4712 71.3903 28.2164 72.3919 26.2888 72.3972C24.3204 72.4024 23.0691 71.3692 22.1816 69.7076C15.1813 56.5765 8.19163 43.4402 1.13097 30.3408C-0.496639 27.3203 1.17002 24.555 3.3443 23.946C4.01523 23.7577 4.73762 23.6802 5.43694 23.6732C8.86433 23.6468 12.2935 23.6609 15.7209 23.6609C16.0705 23.6609 16.422 23.6609 16.9775 23.6609C16.7557 23.1962 16.6137 22.867 16.4468 22.5519C14.3932 18.6672 12.3006 14.8036 10.2914 10.8977C8.27682 6.98125 10.3428 2.41706 14.5902 1.25534C14.9825 1.14796 15.3712 1.03355 15.7617 0.922659C38.4027 0.922659 61.0436 0.922659 83.6846 0.922659V0.920898ZM36.1893 23.5183C31.3722 23.5183 26.5532 23.5148 21.7361 23.5183C19.1163 23.52 17.8384 25.5883 19.0666 27.8818C23.7808 36.6881 28.5145 45.4855 33.2323 54.29C33.8375 55.4183 34.7126 56.1118 36.0278 56.1083C37.3466 56.1065 38.2163 55.3884 38.818 54.2724C43.5908 45.3958 48.3724 36.5244 53.1399 27.6459C54.3202 25.4492 53.1417 23.5218 50.6426 23.5183C45.8254 23.513 41.0065 23.5183 36.1893 23.5183Z" fill="black" stroke="black" stroke-miterlimit="10"/>
<path d="M197.725 45.5084C197.445 45.959 197.259 46.2459 197.085 46.5416C195.464 49.2945 193.828 52.0387 192.237 54.8075C191.797 55.5749 191.272 55.9463 190.336 55.9111C188.537 55.8425 186.731 55.8953 184.93 55.89C183.68 55.8865 183.57 55.7017 184.208 54.6491C187.182 49.7328 190.15 44.8131 193.157 39.9162C193.54 39.2931 193.513 38.8636 193.125 38.2669C190.132 33.6711 187.168 29.0558 184.211 24.4388C184.019 24.1396 183.948 23.7647 183.822 23.425C184.195 23.3176 184.568 23.1257 184.942 23.1204C186.921 23.0905 188.904 23.1556 190.881 23.0835C191.795 23.05 192.298 23.4514 192.736 24.1466C194.396 26.7746 196.076 29.3903 197.75 32.0077C197.922 32.2752 198.109 32.534 198.373 32.9177C198.606 32.5991 198.801 32.365 198.961 32.108C200.604 29.4695 202.26 26.8397 203.867 24.1801C204.326 23.4197 204.875 23.0606 205.794 23.0888C207.624 23.1433 209.458 23.094 211.289 23.1152C211.589 23.1187 212.09 23.1979 212.14 23.3545C212.225 23.6203 212.102 24.0234 211.935 24.2875C208.957 28.996 205.973 33.701 202.951 38.3796C202.55 39.0009 202.589 39.4216 202.974 40.0166C206.094 44.843 209.184 49.6906 212.266 54.5399C212.47 54.8603 212.537 55.2669 212.667 55.633C212.278 55.7122 211.891 55.8566 211.502 55.8618C209.523 55.8847 207.541 55.8337 205.563 55.89C204.676 55.9164 204.168 55.582 203.714 54.8515C201.967 52.0369 200.162 49.2558 198.377 46.4642C198.205 46.1948 198.02 45.9361 197.729 45.5048L197.725 45.5084Z" fill="black" stroke="black" stroke-miterlimit="10"/>
<path d="M100.523 23.2369C101.35 23.2369 102.183 23.2932 103.005 23.221C103.906 23.1418 104.313 23.485 104.544 24.3511C106.595 32.0185 108.684 39.6753 110.772 47.3339C110.852 47.6296 110.974 48.0398 111.198 48.1489C111.858 48.4675 112.131 48.0433 112.295 47.4448C113.583 42.6853 114.888 37.9275 116.187 33.1696C117.011 30.1579 117.852 27.1498 118.644 24.1293C118.816 23.4727 119.121 23.214 119.804 23.2263C121.576 23.258 123.349 23.2316 125.122 23.2386C126.246 23.2439 126.396 23.4551 126.081 24.5728C124.744 29.2902 123.404 34.0075 122.06 38.7231C120.892 42.8208 119.689 46.908 118.555 51.0145C116.814 57.3178 109.517 57.5114 106.569 54.4698C105.743 53.6178 105.055 52.4755 104.717 51.3454C102.044 42.3948 99.469 33.4161 96.867 24.4444C96.5759 23.4446 96.7232 23.2492 97.7757 23.2369C98.6916 23.2263 99.6075 23.2351 100.523 23.2351V23.2369Z" fill="black" stroke="black" stroke-miterlimit="10"/>
<path d="M158.572 39.4408C158.572 36.6615 158.535 33.8804 158.581 31.101C158.661 26.3326 161.476 23.3755 166.29 22.9091C170.308 22.52 174.305 22.7647 178.295 23.2805C178.902 23.3597 179.179 23.7117 179.183 24.2838C179.193 25.5124 179.201 26.741 179.179 27.9696C179.167 28.6755 178.796 28.9976 178.047 28.9905C175.18 28.9676 172.314 28.98 169.447 28.9852C169.064 28.9852 168.675 28.9835 168.297 29.0381C166.744 29.2669 166.219 29.7069 166.064 31.2629C165.921 32.7133 165.984 34.1813 165.945 35.6423C165.928 36.3217 166.396 36.2707 166.851 36.2707C170.338 36.2707 173.824 36.2707 177.31 36.2707C178.679 36.2707 178.853 36.4379 178.854 37.7616C178.854 38.7561 178.86 39.7506 178.854 40.7469C178.847 41.8294 178.661 42.0265 177.552 42.0301C174.094 42.0406 170.637 42.0318 167.179 42.0353C165.945 42.0353 165.931 42.0424 165.945 43.2393C165.961 44.7302 165.908 46.2299 166.061 47.7067C166.235 49.3859 166.982 49.9545 168.721 49.9633C171.735 49.9809 174.749 49.9685 177.763 49.9703C178.986 49.9703 179.206 50.1886 179.209 51.3943C179.211 52.4768 179.195 53.5593 179.215 54.6419C179.225 55.2738 178.968 55.6381 178.32 55.7138C177.092 55.8582 175.867 56.0782 174.635 56.1415C171.602 56.2964 168.57 56.5059 165.535 56.0183C161.332 55.3424 158.684 52.4592 158.592 48.2136C158.528 45.2882 158.579 42.361 158.579 39.4355C158.578 39.4355 158.574 39.4355 158.572 39.4355V39.4408Z" fill="black" stroke="black" stroke-miterlimit="10"/>
<path d="M146.231 42.3631C146.231 46.4291 146.231 50.4969 146.231 54.563C146.231 55.7318 146.095 55.8673 144.896 55.8726C143.301 55.8796 141.705 55.8796 140.109 55.8726C138.942 55.8673 138.743 55.6666 138.741 54.4715C138.737 48.2985 138.741 42.1255 138.741 35.9525C138.741 33.9916 138.709 32.0307 138.757 30.0716C138.775 29.3218 138.503 29.1282 137.788 29.1405C135.662 29.1775 133.533 29.1581 131.407 29.1511C130.378 29.1475 130.214 28.9874 130.209 27.9876C130.202 26.7009 130.216 25.4124 130.205 24.1257C130.2 23.4357 130.514 23.103 131.219 23.103C138.723 23.1065 146.228 23.1065 153.732 23.103C154.428 23.103 154.767 23.4093 154.76 24.1099C154.749 25.4265 154.735 26.7431 154.765 28.0597C154.783 28.843 154.463 29.1704 153.665 29.1616C151.567 29.137 149.469 29.1915 147.372 29.1352C146.501 29.1123 146.199 29.3324 146.212 30.2494C146.263 34.2855 146.233 38.3234 146.233 42.3613L146.231 42.3631Z" fill="black" stroke="black" stroke-miterlimit="10"/>
</g>
<defs>
<clipPath id="clip0_33_132">
<rect width="212.393" height="75.7834" fill="white" transform="translate(0.389038 0.833008)"/>
</clipPath>
</defs>
</svg>
